COMMENT
COMMENT Copyright 2005 Sun Microsystems, Inc.  All rights reserved.
COMMENT Use is subject to license terms.
COMMENT
COMMENT CDDL HEADER START
COMMENT
COMMENT The contents of this file are subject to the terms of the
COMMENT Common Development and Distribution License, Version 1.0 only
COMMENT (the "License").  You may not use this file except in compliance
COMMENT with the License.
COMMENT
COMMENT You can obtain a copy of the license at usr/src/OPENSOLARIS.LICENSE
COMMENT or http://www.opensolaris.org/os/licensing.
COMMENT See the License for the specific language governing permissions
COMMENT and limitations under the License.
COMMENT
COMMENT When distributing Covered Code, include this CDDL HEADER in each
COMMENT file and include the License file at usr/src/OPENSOLARIS.LICENSE.
COMMENT If applicable, add the following below this CDDL HEADER, with the
COMMENT fields enclosed by brackets "[]" replaced with your own identifying
COMMENT information: Portions Copyright [yyyy] [name of copyright owner]
COMMENT
COMMENT CDDL HEADER END
COMMENT
COMMENT 	This is a vga font for ISO/IEC 8859-1
COMMENT
STARTFONT 2.1
FONT 8x16
SIZE 16 75 75
FONTBOUNDINGBOX 8 16 0 -4
STARTPROPERTIES 4
DEFAULT_CHAR 0
FONT_DESCENT 3
FONT_ASCENT 12
COPYRIGHT "Sun Microsystems, Inc."
ENDPROPERTIES
CHARS 256
STARTCHAR C000	<NUL>
ENCODING 0
SWIDTH 666 0
DWIDTH 8 0
BBX 8 16 0 -4
BITMAP
00
00
00
00
00
00
00
00
00
00
00
00
00
00
00
00
ENDCHAR
STARTCHAR C001	<SOH>
ENCODING 1
SWIDTH 666 0
DWIDTH 8 0
BBX 8 16 0 -4
BITMAP
00
00
7E
81
A5
81
81
BD
99
81
7E
00
00
00
00
00
ENDCHAR
STARTCHAR C002	<STX>
ENCODING 2
SWIDTH 666 0
DWIDTH 8 0
BBX 8 16 0 -4
BITMAP
00
00
7E
FF
DB
FF
FF
C3
E7
FF
7E
00
00
00
00
00
ENDCHAR
STARTCHAR C003	<ETX>
ENCODING 3
SWIDTH 666 0
DWIDTH 8 0
BBX 8 16 0 -4
BITMAP
00
00
00
6C
FE
FE
FE
FE
7C
38
10
00
00
00
00
00
ENDCHAR
STARTCHAR C004	<EOT>
ENCODING 4
SWIDTH 666 0
DWIDTH 8 0
BBX 8 16 0 -4
BITMAP
00
00
00
10
38
7C
FE
7C
38
10
00
00
00
00
00
00
ENDCHAR
STARTCHAR C005	<ENQ>
ENCODING 5
SWIDTH 666 0
DWIDTH 8 0
BBX 8 16 0 -4
BITMAP
00
00
18
3C
3C
E7
E7
E7
18
18
3C
00
00
00
00
00
ENDCHAR
STARTCHAR C006	<ACK>
ENCODING 6
SWIDTH 666 0
DWIDTH 8 0
BBX 8 16 0 -4
BITMAP
00
00
18
3C
7E
FF
FF
7E
18
18
3C
00
00
00
00
00
ENDCHAR
STARTCHAR C007	<alert>
ENCODING 7
SWIDTH 666 0
DWIDTH 8 0
BBX 8 16 0 -4
BITMAP
00
00
00
00
00
18
3C
3C
18
00
00
00
00
00
00
00
ENDCHAR
STARTCHAR C008	<backspace>
ENCODING 8
SWIDTH 666 0
DWIDTH 8 0
BBX 8 16 0 -4
BITMAP
FF
FF
FF
FF
FF
E7
C3
C3
E7
FF
FF
FF
FF
FF
00
00
ENDCHAR
STARTCHAR C009	<tab>
ENCODING 9
SWIDTH 666 0
DWIDTH 8 0
BBX 8 16 0 -4
BITMAP
00
00
00
00
3C
66
42
42
66
3C
00
00
00
00
00
00
ENDCHAR
STARTCHAR C00A	<newline>
ENCODING 10
SWIDTH 666 0
DWIDTH 8 0
BBX 8 16 0 -4
BITMAP
FF
FF
FF
FF
C3
99
BD
BD
99
C3
FF
FF
FF
FF
00
00
ENDCHAR
STARTCHAR C00B	<vertical-tab>
ENCODING 11
SWIDTH 666 0
DWIDTH 8 0
BBX 8 16 0 -4
BITMAP
00
00
1E
0E
1A
32
78
CC
CC
CC
78
00
00
00
00
00
ENDCHAR
STARTCHAR C00C	<form-feed>
ENCODING 12
SWIDTH 666 0
DWIDTH 8 0
BBX 8 16 0 -4
BITMAP
00
00
3C
66
66
66
3C
18
7E
18
18
00
00
00
00
00
ENDCHAR
STARTCHAR C00D	<carriage-return>
ENCODING 13
SWIDTH 666 0
DWIDTH 8 0
BBX 8 16 0 -4
BITMAP
00
00
3F
33
3F
30
30
30
70
F0
E0
00
00
00
00
00
ENDCHAR
STARTCHAR C00E	<SO>
ENCODING 14
SWIDTH 666 0
DWIDTH 8 0
BBX 8 16 0 -4
BITMAP
00
00
7F
63
7F
63
63
63
67
E7
E6
C0
00
00
00
00
ENDCHAR
STARTCHAR C00F	<SI>
ENCODING 15
SWIDTH 666 0
DWIDTH 8 0
BBX 8 16 0 -4
BITMAP
00
00
18
18
DB
3C
E7
3C
DB
18
18
00
00
00
00
00
ENDCHAR
STARTCHAR C010	<DLE>
ENCODING 16
SWIDTH 666 0
DWIDTH 8 0
BBX 8 16 0 -4
BITMAP
00
00
80
C0
E0
F8
FE
F8
E0
C0
80
00
00
00
00
00
ENDCHAR
STARTCHAR C011	<DC1>
ENCODING 17
SWIDTH 666 0
DWIDTH 8 0
BBX 8 16 0 -4
BITMAP
00
00
02
06
0E
3E
FE
3E
0E
06
02
00
00
00
00
00
ENDCHAR
STARTCHAR C012	<DC2>
ENCODING 18
SWIDTH 666 0
DWIDTH 8 0
BBX 8 16 0 -4
BITMAP
00
00
18
3C
7E
18
18
18
7E
3C
18
00
00
00
00
00
ENDCHAR
STARTCHAR C013	<DC3>
ENCODING 19
SWIDTH 666 0
DWIDTH 8 0
BBX 8 16 0 -4
BITMAP
00
00
66
66
66
66
66
66
00
66
66
00
00
00
00
00
ENDCHAR
STARTCHAR C014	<DC4>
ENCODING 20
SWIDTH 666 0
DWIDTH 8 0
BBX 8 16 0 -4
BITMAP
00
00
7F
DB
DB
DB
7B
1B
1B
1B
1B
00
00
00
00
00
ENDCHAR
STARTCHAR C015	<NAK>
ENCODING 21
SWIDTH 666 0
DWIDTH 8 0
BBX 8 16 0 -4
BITMAP
00
7C
C6
60
38
6C
C6
C6
6C
38
0C
C6
7C
00
00
00
ENDCHAR
STARTCHAR C016	<SYN>
ENCODING 22
SWIDTH 666 0
DWIDTH 8 0
BBX 8 16 0 -4
BITMAP
00
00
00
00
00
00
00
00
FE
FE
FE
00
00
00
00
00
ENDCHAR
STARTCHAR C017	<ETB>
ENCODING 23
SWIDTH 666 0
DWIDTH 8 0
BBX 8 16 0 -4
BITMAP
00
00
18
3C
7E
18
18
18
7E
3C
18
7E
00
00
00
00
ENDCHAR
STARTCHAR C018	<CAN>
ENCODING 24
SWIDTH 666 0
DWIDTH 8 0
BBX 8 16 0 -4
BITMAP
00
00
18
3C
7E
18
18
18
18
18
18
00
00
00
00
00
ENDCHAR
STARTCHAR C019	<EM>
ENCODING 25
SWIDTH 666 0
DWIDTH 8 0
BBX 8 16 0 -4
BITMAP
00
00
18
18
18
18
18
18
7E
3C
18
00
00
00
00
00
ENDCHAR
STARTCHAR C01A	<SUB>
ENCODING 26
SWIDTH 666 0
DWIDTH 8 0
BBX 8 16 0 -4
BITMAP
00
00
00
00
18
0C
FE
0C
18
00
00
00
00
00
00
00
ENDCHAR
STARTCHAR C01B	<ESC>
ENCODING 27
SWIDTH 666 0
DWIDTH 8 0
BBX 8 16 0 -4
BITMAP
00
00
00
00
30
60
FE
60
30
00
00
00
00
00
00
00
ENDCHAR
STARTCHAR C01C	<IS4>
ENCODING 28
SWIDTH 666 0
DWIDTH 8 0
BBX 8 16 0 -4
BITMAP
00
00
00
00
00
C0
C0
C0
FE
00
00
00
00
00
00
00
ENDCHAR
STARTCHAR C01D	<IS3>
ENCODING 29
SWIDTH 666 0
DWIDTH 8 0
BBX 8 16 0 -4
BITMAP
00
00
00
00
28
6C
FE
6C
28
00
00
00
00
00
00
00
ENDCHAR
STARTCHAR C01E	<IS2>
ENCODING 30
SWIDTH 666 0
DWIDTH 8 0
BBX 8 16 0 -4
BITMAP
00
00
00
10
38
38
7C
7C
FE
FE
00
00
00
00
00
00
ENDCHAR
STARTCHAR C01F	<IS1>
ENCODING 31
SWIDTH 666 0
DWIDTH 8 0
BBX 8 16 0 -4
BITMAP
00
00
00
FE
FE
7C
7C
38
38
10
00
00
00
00
00
00
ENDCHAR
STARTCHAR C020	<space>
ENCODING 32
SWIDTH 666 0
DWIDTH 8 0
BBX 8 16 0 -4
BITMAP
00
00
00
00
00
00
00
00
00
00
00
00
00
00
00
00
ENDCHAR
STARTCHAR C021	<exclamation-mark>
ENCODING 33
SWIDTH 666 0
DWIDTH 8 0
BBX 8 16 0 -4
BITMAP
00
00
18
3C
3C
3C
18
18
00
18
18
00
00
00
00
00
ENDCHAR
STARTCHAR C022	<quotation-mark>
ENCODING 34
SWIDTH 666 0
DWIDTH 8 0
BBX 8 16 0 -4
BITMAP
00
66
66
66
24
00
00
00
00
00
00
00
00
00
00
00
ENDCHAR
STARTCHAR C023	<number-sign>
ENCODING 35
SWIDTH 666 0
DWIDTH 8 0
BBX 8 16 0 -4
BITMAP
00
00
6C
6C
FE
6C
6C
6C
FE
6C
6C
00
00
00
00
00
ENDCHAR
STARTCHAR C024	<dollar-sign>
ENCODING 36
SWIDTH 666 0
DWIDTH 8 0
BBX 8 16 0 -4
BITMAP
18
18
7C
C6
C2
C0
7C
06
86
C6
7C
18
18
00
00
00
ENDCHAR
STARTCHAR C025	<percent-sign>
ENCODING 37
SWIDTH 666 0
DWIDTH 8 0
BBX 8 16 0 -4
BITMAP
00
00
00
00
C2
C6
0C
18
30
66
C6
00
00
00
00
00
ENDCHAR
STARTCHAR C026	<ampersand>
ENCODING 38
SWIDTH 666 0
DWIDTH 8 0
BBX 8 16 0 -4
BITMAP
00
00
38
6c
6C
38
76
dc
CC
CC
cc
76
00
00
00
00
ENDCHAR
STARTCHAR C027	<apostrophe>
ENCODING 39
SWIDTH 666 0
DWIDTH 8 0
BBX 8 16 0 -4
BITMAP
00
30
30
30
60
00
00
00
00
00
00
00
00
00
00
00
ENDCHAR
STARTCHAR C028	<left-parenthesis>
ENCODING 40
SWIDTH 666 0
DWIDTH 8 0
BBX 8 16 0 -4
BITMAP
00
00
0C
18
30
30
30
30
30
30
18
0c
00
00
00
00
ENDCHAR
STARTCHAR C029	<right-parenthesis>
ENCODING 41
SWIDTH 666 0
DWIDTH 8 0
BBX 8 16 0 -4
BITMAP
00
00
30
18
0C
0C
0C
0C
0C
0c
18
30
00
00
00
00
ENDCHAR
STARTCHAR C02A	<asterisk>
ENCODING 42
SWIDTH 666 0
DWIDTH 8 0
BBX 8 16 0 -4
BITMAP
00
00
00
00
66
3C
FF
3C
66
00
00
00
00
00
00
00
ENDCHAR
STARTCHAR C02B	<plus-sign>
ENCODING 43
SWIDTH 666 0
DWIDTH 8 0
BBX 8 16 0 -4
BITMAP
00
00
00
00
18
18
7E
18
18
00
00
00
00
00
00
00
ENDCHAR
STARTCHAR C02C	<comma>
ENCODING 44
SWIDTH 666 0
DWIDTH 8 0
BBX 8 16 0 -4
BITMAP
00
00
00
00
00
00
00
00
00
18
18
18
30
00
00
00
ENDCHAR
STARTCHAR C02D	<hyphen-minus>
ENCODING 45
SWIDTH 666 0
DWIDTH 8 0
BBX 8 16 0 -4
BITMAP
00
00
00
00
00
00
FE
00
00
00
00
00
00
00
00
00
ENDCHAR
STARTCHAR C02E	<period>
ENCODING 46
SWIDTH 666 0
DWIDTH 8 0
BBX 8 16 0 -4
BITMAP
00
00
00
00
00
00
00
00
00
18
18
00
00
00
00
00
ENDCHAR
STARTCHAR C02F	<slash>
ENCODING 47
SWIDTH 666 0
DWIDTH 8 0
BBX 8 16 0 -4
BITMAP
00
00
00
02
06
0c
18
30
60
c0
80
00
00
00
00
00
ENDCHAR
STARTCHAR C030	<zero>
ENCODING 48
SWIDTH 666 0
DWIDTH 8 0
BBX 8 16 0 -4
BITMAP
00
00
38
6c
c6
c6
d6
d6
C6
C6
6C
38
00
00
00
00
ENDCHAR
STARTCHAR C031	<one>
ENCODING 49
SWIDTH 666 0
DWIDTH 8 0
BBX 8 16 0 -4
BITMAP
00
00
18
38
78
18
18
18
18
18
18
7e
00
00
00
00
ENDCHAR
STARTCHAR C032	<two>
ENCODING 50
SWIDTH 666 0
DWIDTH 8 0
BBX 8 16 0 -4
BITMAP
00
00
7C
C6
06
0C
18
30
60
C0
c6
fe
00
00
00
00
ENDCHAR
STARTCHAR C033	<three>
ENCODING 51
SWIDTH 666 0
DWIDTH 8 0
BBX 8 16 0 -4
BITMAP
00
00
7C
C6
06
06
3C
06
06
06
c6
7c
00
00
00
00
ENDCHAR
STARTCHAR C034	<four>
ENCODING 52
SWIDTH 666 0
DWIDTH 8 0
BBX 8 16 0 -4
BITMAP
00
00
0C
1C
3C
6C
CC
FE
0C
0C
0c
1e
00
00
00
00
ENDCHAR
STARTCHAR C035	<five>
ENCODING 53
SWIDTH 666 0
DWIDTH 8 0
BBX 8 16 0 -4
BITMAP
00
00
FE
C0
C0
C0
FC
06
06
06
c6
7c
00
00
00
00
ENDCHAR
STARTCHAR C036	<six>
ENCODING 54
SWIDTH 666 0
DWIDTH 8 0
BBX 8 16 0 -4
BITMAP
00
00
38
60
C0
C0
FC
C6
C6
C6
c6
7c
00
00
00
00
ENDCHAR
STARTCHAR C037	<seven>
ENCODING 55
SWIDTH 666 0
DWIDTH 8 0
BBX 8 16 0 -4
BITMAP
00
00
FE
C6
06
0C
18
30
30
30
30
30
00
00
00
00
ENDCHAR
STARTCHAR C038	<eight>
ENCODING 56
SWIDTH 666 0
DWIDTH 8 0
BBX 8 16 0 -4
BITMAP
00
00
7C
C6
C6
C6
7C
C6
C6
C6
c6
7c
00
00
00
00
ENDCHAR
STARTCHAR C039	<nine>
ENCODING 57
SWIDTH 666 0
DWIDTH 8 0
BBX 8 16 0 -4
BITMAP
00
00
7C
C6
C6
C6
7E
06
06
06
0c
78
00
00
00
00
ENDCHAR
STARTCHAR C03A	<colon>
ENCODING 58
SWIDTH 666 0
DWIDTH 8 0
BBX 8 16 0 -4
BITMAP
00
00
00
18
18
00
00
00
18
18
00
00
00
00
00
00
ENDCHAR
STARTCHAR C03B	<semicolon>
ENCODING 59
SWIDTH 666 0
DWIDTH 8 0
BBX 8 16 0 -4
BITMAP
00
00
00
18
18
00
00
00
18
18
30
00
00
00
00
00
ENDCHAR
STARTCHAR C03C	<less-than-sign>
ENCODING 60
SWIDTH 666 0
DWIDTH 8 0
BBX 8 16 0 -4
BITMAP
00
00
06
0C
18
30
60
30
18
0C
06
00
00
00
00
00
ENDCHAR
STARTCHAR C03D	<equals-sign>
ENCODING 61
SWIDTH 666 0
DWIDTH 8 0
BBX 8 16 0 -4
BITMAP
00
00
00
00
00
7E
00
00
7E
00
00
00
00
00
00
00
ENDCHAR
STARTCHAR C03E	<greater-than-sign>
ENCODING 62
SWIDTH 666 0
DWIDTH 8 0
BBX 8 16 0 -4
BITMAP
00
00
60
30
18
0C
06
0C
18
30
60
00
00
00
00
00
ENDCHAR
STARTCHAR C03F	<question-mark>
ENCODING 63
SWIDTH 666 0
DWIDTH 8 0
BBX 8 16 0 -4
BITMAP
00
00
7C
C6
C6
0C
18
18
18
00
18
18
00
00
00
00
ENDCHAR
STARTCHAR C040	<commercial-at>
ENCODING 64
SWIDTH 666 0
DWIDTH 8 0
BBX 8 16 0 -4
BITMAP
00
00
7C
C6
C6
DE
DE
DE
DC
C0
7C
00
00
00
00
00
ENDCHAR
STARTCHAR C041	<A>
ENCODING 65
SWIDTH 666 0
DWIDTH 8 0
BBX 8 16 0 -4
BITMAP
00
00
10
38
6C
C6
C6
FE
C6
C6
C6
c6
00
00
00
00
ENDCHAR
STARTCHAR C042	<B>
ENCODING 66
SWIDTH 666 0
DWIDTH 8 0
BBX 8 16 0 -4
BITMAP
00
00
FC
66
66
66
7C
66
66
66
66
fc
00
00
00
00
ENDCHAR
STARTCHAR C043	<C>
ENCODING 67
SWIDTH 666 0
DWIDTH 8 0
BBX 8 16 0 -4
BITMAP
00
00
3C
66
C2
C0
C0
C0
C0
c2
66
3c
00
00
00
00
ENDCHAR
STARTCHAR C044	<D>
ENCODING 68
SWIDTH 666 0
DWIDTH 8 0
BBX 8 16 0 -4
BITMAP
00
00
F8
6C
66
66
66
66
66
66
6c
f8
00
00
00
00
ENDCHAR
STARTCHAR C045	<E>
ENCODING 69
SWIDTH 666 0
DWIDTH 8 0
BBX 8 16 0 -4
BITMAP
00
00
FE
66
62
68
78
68
60
62
66
fe
00
00
00
00
ENDCHAR
STARTCHAR C046	<F>
ENCODING 70
SWIDTH 666 0
DWIDTH 8 0
BBX 8 16 0 -4
BITMAP
00
00
FE
66
62
68
78
68
60
60
60
f0
00
00
00
00
ENDCHAR
STARTCHAR C047	<G>
ENCODING 71
SWIDTH 666 0
DWIDTH 8 0
BBX 8 16 0 -4
BITMAP
00
00
3C
66
C2
C0
C0
DE
C6
c6
66
3a
00
00
00
00
ENDCHAR
STARTCHAR C048	<H>
ENCODING 72
SWIDTH 666 0
DWIDTH 8 0
BBX 8 16 0 -4
BITMAP
00
00
C6
C6
C6
C6
FE
C6
C6
C6
C6
c6
00
00
00
00
ENDCHAR
STARTCHAR C049	<I>
ENCODING 73
SWIDTH 666 0
DWIDTH 8 0
BBX 8 16 0 -4
BITMAP
00
00
3C
18
18
18
18
18
18
18
18
3c
00
00
00
00
ENDCHAR
STARTCHAR C04A	<J>
ENCODING 74
SWIDTH 666 0
DWIDTH 8 0
BBX 8 16 0 -4
BITMAP
00
00
1E
0C
0C
0C
0C
0C
cC
CC
cc
78
00
00
00
00
ENDCHAR
STARTCHAR C04B	<K>
ENCODING 75
SWIDTH 666 0
DWIDTH 8 0
BBX 8 16 0 -4
BITMAP
00
00
E6
66
66
6C
78
78
6c
66
66
e6
00
00
00
00
ENDCHAR
STARTCHAR C04C	<L>
ENCODING 76
SWIDTH 666 0
DWIDTH 8 0
BBX 8 16 0 -4
BITMAP
00
00
F0
60
60
60
60
60
60
62
66
fe
00
00
00
00
ENDCHAR
STARTCHAR C04D	<M>
ENCODING 77
SWIDTH 666 0
DWIDTH 8 0
BBX 8 16 0 -4
BITMAP
00
00
C6
EE
FE
FE
D6
C6
C6
C6
C6
c6
00
00
00
00
ENDCHAR
STARTCHAR C04E	<N>
ENCODING 78
SWIDTH 666 0
DWIDTH 8 0
BBX 8 16 0 -4
BITMAP
00
00
C6
E6
F6
FE
DE
CE
C6
C6
C6
c6
00
00
00
00
ENDCHAR
STARTCHAR C04F	<O>
ENCODING 79
SWIDTH 666 0
DWIDTH 8 0
BBX 8 16 0 -4
BITMAP
00
00
7c
c6
C6
C6
C6
C6
C6
c6
c6
7c
00
00
00
00
ENDCHAR
STARTCHAR C050	<P>
ENCODING 80
SWIDTH 666 0
DWIDTH 8 0
BBX 8 16 0 -4
BITMAP
00
00
FC
66
66
66
7C
60
60
60
60
f0
00
00
00
00
ENDCHAR
STARTCHAR C051	<Q>
ENCODING 81
SWIDTH 666 0
DWIDTH 8 0
BBX 8 16 0 -4
BITMAP
00
00
7C
C6
C6
C6
C6
c6
c6
d6
de
7c
0c
0e
00
00
ENDCHAR
STARTCHAR C052	<R>
ENCODING 82
SWIDTH 666 0
DWIDTH 8 0
BBX 8 16 0 -4
BITMAP
00
00
FC
66
66
66
7C
6C
66
66
66
e6
00
00
00
00
ENDCHAR
STARTCHAR C053	<S>
ENCODING 83
SWIDTH 666 0
DWIDTH 8 0
BBX 8 16 0 -4
BITMAP
00
00
7C
C6
C6
60
38
0C
06
C6
c6
7c
00
00
00
00
ENDCHAR
STARTCHAR C054	<T>
ENCODING 84
SWIDTH 666 0
DWIDTH 8 0
BBX 8 16 0 -4
BITMAP
00
00
7E
7E
5A
18
18
18
18
18
18
3c
00
00
00
00
ENDCHAR
STARTCHAR C055	<U>
ENCODING 85
SWIDTH 666 0
DWIDTH 8 0
BBX 8 16 0 -4
BITMAP
00
00
C6
C6
C6
C6
C6
C6
C6
C6
fe
7c
00
00
00
00
ENDCHAR
STARTCHAR C056	<V>
ENCODING 86
SWIDTH 666 0
DWIDTH 8 0
BBX 8 16 0 -4
BITMAP
00
00
C6
C6
C6
C6
C6
C6
c6
6c
38
10
00
00
00
00
ENDCHAR
STARTCHAR C057	<W>
ENCODING 87
SWIDTH 666 0
DWIDTH 8 0
BBX 8 16 0 -4
BITMAP
00
00
C6
C6
C6
C6
D6
D6
d6
7C
6C
6c
00
00
00
00
ENDCHAR
STARTCHAR C058	<X>
ENCODING 88
SWIDTH 666 0
DWIDTH 8 0
BBX 8 16 0 -4
BITMAP
00
00
C6
C6
6C
7c
38
38
7C
6c
C6
c6
00
00
00
00
ENDCHAR
STARTCHAR C059	<Y>
ENCODING 89
SWIDTH 666 0
DWIDTH 8 0
BBX 8 16 0 -4
BITMAP
00
00
66
66
66
66
3C
18
18
18
18
3c
00
00
00
00
ENDCHAR
STARTCHAR C05A	<Z>
ENCODING 90
SWIDTH 666 0
DWIDTH 8 0
BBX 8 16 0 -4
BITMAP
00
00
FE
C6
86
0c
18
30
60
C2
c6
fe
00
00
00
00
ENDCHAR
STARTCHAR C05B	<left-square-bracket>
ENCODING 91
SWIDTH 666 0
DWIDTH 8 0
BBX 8 16 0 -4
BITMAP
00
00
3C
30
30
30
30
30
30
30
3C
00
00
00
00
00
ENDCHAR
STARTCHAR C05C	<backslash>
ENCODING 92
SWIDTH 666 0
DWIDTH 8 0
BBX 8 16 0 -4
BITMAP
00
00
80
C0
E0
70
38
1C
0E
06
02
00
00
00
00
00
ENDCHAR
STARTCHAR C05D	<right-square-bracket>
ENCODING 93
SWIDTH 666 0
DWIDTH 8 0
BBX 8 16 0 -4
BITMAP
00
00
3C
0C
0C
0C
0C
0C
0C
0C
3C
00
00
00
00
00
ENDCHAR
STARTCHAR C05E	<circumflex-accent>
ENCODING 94
SWIDTH 666 0
DWIDTH 8 0
BBX 8 16 0 -4
BITMAP
10
38
6C
C6
00
00
00
00
00
00
00
00
00
00
00
00
ENDCHAR
STARTCHAR C05F	<underscore>
ENCODING 95
SWIDTH 666 0
DWIDTH 8 0
BBX 8 16 0 -4
BITMAP
00
00
00
00
00
00
00
00
00
00
00
00
FF
00
00
00
ENDCHAR
STARTCHAR C060	<grave-accent>
ENCODING 96
SWIDTH 666 0
DWIDTH 8 0
BBX 8 16 0 -4
BITMAP
30
30
18
00
00
00
00
00
00
00
00
00
00
00
00
00
ENDCHAR
STARTCHAR C061	<a>
ENCODING 97
SWIDTH 666 0
DWIDTH 8 0
BBX 8 16 0 -4
BITMAP
00
00
00
00
00
78
0C
7C
4C
CC
cc
76
00
00
00
00
ENDCHAR
STARTCHAR C062	<b>
ENCODING 98
SWIDTH 666 0
DWIDTH 8 0
BBX 8 16 0 -4
BITMAP
00
00
E0
60
60
78
6C
66
66
66
66
7c
00
00
00
00
ENDCHAR
STARTCHAR C063	<c>
ENCODING 99
SWIDTH 666 0
DWIDTH 8 0
BBX 8 16 0 -4
BITMAP
00
00
00
00
00
7C
C6
C0
C0
C0
c6
7c
00
00
00
00
ENDCHAR
STARTCHAR C064	<d>
ENCODING 100
SWIDTH 666 0
DWIDTH 8 0
BBX 8 16 0 -4
BITMAP
00
00
1C
0C
0C
3C
6C
CC
CC
CC
cc
76
00
00
00
00
ENDCHAR
STARTCHAR C065	<e>
ENCODING 101
SWIDTH 666 0
DWIDTH 8 0
BBX 8 16 0 -4
BITMAP
00
00
00
00
00
7C
C6
FE
C0
C0
c6
7c
00
00
00
00
ENDCHAR
STARTCHAR C066	<f>
ENCODING 102
SWIDTH 666 0
DWIDTH 8 0
BBX 8 16 0 -4
BITMAP
00
00
38
6C
64
60
F0
60
60
60
60
f0
00
00
00
00
ENDCHAR
STARTCHAR C067	<g>
ENCODING 103
SWIDTH 666 0
DWIDTH 8 0
BBX 8 16 0 -4
BITMAP
00
00
00
00
00
76
CC
CC
CC
cC
7C
0C
cc
78
00
00
ENDCHAR
STARTCHAR C068	<h>
ENCODING 104
SWIDTH 666 0
DWIDTH 8 0
BBX 8 16 0 -4
BITMAP
00
00
E0
60
60
6C
76
66
66
66
66
e6
00
00
00
00
ENDCHAR
STARTCHAR C069	<i>
ENCODING 105
SWIDTH 666 0
DWIDTH 8 0
BBX 8 16 0 -4
BITMAP
00
00
18
18
00
38
18
18
18
18
18
3c
00
00
00
00
ENDCHAR
STARTCHAR C06A	<j>
ENCODING 106
SWIDTH 666 0
DWIDTH 8 0
BBX 8 16 0 -4
BITMAP
00
00
06
06
00
0E
06
06
06
06
06
66
26
3c
00
00
ENDCHAR
STARTCHAR C06B	<k>
ENCODING 107
SWIDTH 666 0
DWIDTH 8 0
BBX 8 16 0 -4
BITMAP
00
00
E0
60
60
66
6C
78
78
6c
66
e6
00
00
00
00
ENDCHAR
STARTCHAR C06C	<l>
ENCODING 108
SWIDTH 666 0
DWIDTH 8 0
BBX 8 16 0 -4
BITMAP
00
00
38
18
18
18
18
18
18
18
18
3c
00
00
00
00
ENDCHAR
STARTCHAR C06D	<m>
ENCODING 109
SWIDTH 666 0
DWIDTH 8 0
BBX 8 16 0 -4
BITMAP
00
00
00
00
00
EC
FE
D6
D6
D6
d6
c6
00
00
00
00
ENDCHAR
STARTCHAR C06E	<n>
ENCODING 110
SWIDTH 666 0
DWIDTH 8 0
BBX 8 16 0 -4
BITMAP
00
00
00
00
00
DC
66
66
66
66
66
66
00
00
00
00
ENDCHAR
STARTCHAR C06F	<o>
ENCODING 111
SWIDTH 666 0
DWIDTH 8 0
BBX 8 16 0 -4
BITMAP
00
00
00
00
00
7C
C6
C6
C6
C6
c6
7c
00
00
00
00
ENDCHAR
STARTCHAR C070	<p>
ENCODING 112
SWIDTH 666 0
DWIDTH 8 0
BBX 8 16 0 -4
BITMAP
00
00
00
00
00
DC
66
66
66
66
7c
60
60
60
f0
00
ENDCHAR
STARTCHAR C071	<q>
ENCODING 113
SWIDTH 666 0
DWIDTH 8 0
BBX 8 16 0 -4
BITMAP
00
00
00
00
00
76
CC
CC
CC
cC
7C
0C
0c
0c
1e
00
ENDCHAR
STARTCHAR C072	<r>
ENCODING 114
SWIDTH 666 0
DWIDTH 8 0
BBX 8 16 0 -4
BITMAP
00
00
00
00
00
DC
76
66
60
60
60
f0
00
00
00
00
ENDCHAR
STARTCHAR C073	<s>
ENCODING 115
SWIDTH 666 0
DWIDTH 8 0
BBX 8 16 0 -4
BITMAP
00
00
00
00
00
7C
C6
70
18
0c
c6
7c
00
00
00
00
ENDCHAR
STARTCHAR C074	<t>
ENCODING 116
SWIDTH 666 0
DWIDTH 8 0
BBX 8 16 0 -4
BITMAP
00
00
10
30
30
FC
30
30
30
30
36
1c
00
00
00
00
ENDCHAR
STARTCHAR C075	<u>
ENCODING 117
SWIDTH 666 0
DWIDTH 8 0
BBX 8 16 0 -4
BITMAP
00
00
00
00
00
CC
CC
CC
CC
CC
cc
76
00
00
00
00
ENDCHAR
STARTCHAR C076	<v>
ENCODING 118
SWIDTH 666 0
DWIDTH 8 0
BBX 8 16 0 -4
BITMAP
00
00
00
00
00
66
66
66
66
66
3c
18
00
00
00
00
ENDCHAR
STARTCHAR C077	<w>
ENCODING 119
SWIDTH 666 0
DWIDTH 8 0
BBX 8 16 0 -4
BITMAP
00
00
00
00
00
C6
C6
D6
D6
d6
7C
6c
00
00
00
00
ENDCHAR
STARTCHAR C078	<x>
ENCODING 120
SWIDTH 666 0
DWIDTH 8 0
BBX 8 16 0 -4
BITMAP
00
00
00
00
00
C6
6C
38
38
38
6c
c6
00
00
00
00
ENDCHAR
STARTCHAR C079	<y>
ENCODING 121
SWIDTH 666 0
DWIDTH 8 0
BBX 8 16 0 -4
BITMAP
00
00
00
00
00
C6
C6
C6
C6
c6
7e
06
06
0c
f8
00
ENDCHAR
STARTCHAR C07A	<z>
ENCODING 122
SWIDTH 666 0
DWIDTH 8 0
BBX 8 16 0 -4
BITMAP
00
00
00
00
00
FE
CC
18
30
66
c6
fe
00
00
00
00
ENDCHAR
STARTCHAR C07B	<left-curly-bracket>
ENCODING 123
SWIDTH 666 0
DWIDTH 8 0
BBX 8 16 0 -4
BITMAP
00
00
0E
18
18
18
70
18
18
18
0E
00
00
00
00
00
ENDCHAR
STARTCHAR C07C	<vertical-line>
ENCODING 124
SWIDTH 666 0
DWIDTH 8 0
BBX 8 16 0 -4
BITMAP
00
00
18
18
18
18
18
18
18
18
18
00
00
00
00
00
ENDCHAR
STARTCHAR C07D	<right-curly-bracket>
ENCODING 125
SWIDTH 666 0
DWIDTH 8 0
BBX 8 16 0 -4
BITMAP
00
00
70
18
18
18
0E
18
18
18
70
00
00
00
00
00
ENDCHAR
STARTCHAR C07E	<tilde>
ENCODING 126
SWIDTH 666 0
DWIDTH 8 0
BBX 8 16 0 -4
BITMAP
00
00
76
DC
00
00
00
00
00
00
00
00
00
00
00
00
ENDCHAR
STARTCHAR C07F	<delete>
ENCODING 127
SWIDTH 666 0
DWIDTH 8 0
BBX 8 16 0 -4
BITMAP
00
00
00
00
10
38
6C
C6
C6
FE
00
00
00
00
00
00
ENDCHAR
STARTCHAR C080	<PAD>
ENCODING 128
SWIDTH 666 0
DWIDTH 8 0
BBX 8 16 0 -4
BITMAP
00
00
00
00
00
00
00
00
00
00
00
00
00
00
00
00
ENDCHAR
STARTCHAR C081	<HOP>
ENCODING 129
SWIDTH 666 0
DWIDTH 8 0
BBX 8 16 0 -4
BITMAP
00
00
00
00
00
00
00
00
00
00
00
00
00
00
00
00
ENDCHAR
STARTCHAR C082	<BHP>
ENCODING 130
SWIDTH 666 0
DWIDTH 8 0
BBX 8 16 0 -4
BITMAP
00
00
00
00
00
00
00
00
00
00
00
00
00
00
00
00
ENDCHAR
STARTCHAR C083	<NBH>
ENCODING 131
SWIDTH 666 0
DWIDTH 8 0
BBX 8 16 0 -4
BITMAP
00
00
00
00
00
00
00
00
00
00
00
00
00
00
00
00
ENDCHAR
STARTCHAR C084	<IND>
ENCODING 132
SWIDTH 666 0
DWIDTH 8 0
BBX 8 16 0 -4
BITMAP
00
00
00
00
00
00
00
00
00
00
00
00
00
00
00
00
ENDCHAR
STARTCHAR C085	<NEL>
ENCODING 133
SWIDTH 666 0
DWIDTH 8 0
BBX 8 16 0 -4
BITMAP
00
00
00
00
00
00
00
00
00
00
00
00
00
00
00
00
ENDCHAR
STARTCHAR C086	<SSA>
ENCODING 134
SWIDTH 666 0
DWIDTH 8 0
BBX 8 16 0 -4
BITMAP
00
00
00
00
00
00
00
00
00
00
00
00
00
00
00
00
ENDCHAR
STARTCHAR C087	<ESA>
ENCODING 135
SWIDTH 666 0
DWIDTH 8 0
BBX 8 16 0 -4
BITMAP
00
00
00
00
00
00
00
00
00
00
00
00
00
00
00
00
ENDCHAR
STARTCHAR C088	<HTS>
ENCODING 136
SWIDTH 666 0
DWIDTH 8 0
BBX 8 16 0 -4
BITMAP
00
00
00
00
00
00
00
00
00
00
00
00
00
00
00
00
ENDCHAR
STARTCHAR C089	<HTJ>
ENCODING 137
SWIDTH 666 0
DWIDTH 8 0
BBX 8 16 0 -4
BITMAP
00
00
00
00
00
00
00
00
00
00
00
00
00
00
00
00
ENDCHAR
STARTCHAR C08A	<VTS>
ENCODING 138
SWIDTH 666 0
DWIDTH 8 0
BBX 8 16 0 -4
BITMAP
00
00
00
00
00
00
00
00
00
00
00
00
00
00
00
00
ENDCHAR
STARTCHAR C08B	<PLD>
ENCODING 139
SWIDTH 666 0
DWIDTH 8 0
BBX 8 16 0 -4
BITMAP
00
00
00
00
00
00
00
00
00
00
00
00
00
00
00
00
ENDCHAR
STARTCHAR C08C	<PLU>
ENCODING 140
SWIDTH 666 0
DWIDTH 8 0
BBX 8 16 0 -4
BITMAP
00
00
00
00
00
00
00
00
00
00
00
00
00
00
00
00
ENDCHAR
STARTCHAR C08D	<RI>
ENCODING 141
SWIDTH 666 0
DWIDTH 8 0
BBX 8 16 0 -4
BITMAP
00
00
00
00
00
00
00
00
00
00
00
00
00
00
00
00
ENDCHAR
STARTCHAR C08E	<SS2>
ENCODING 142
SWIDTH 666 0
DWIDTH 8 0
BBX 8 16 0 -4
BITMAP
00
00
00
00
00
00
00
00
00
00
00
00
00
00
00
00
ENDCHAR
STARTCHAR C08F	<SS3>
ENCODING 143
SWIDTH 666 0
DWIDTH 8 0
BBX 8 16 0 -4
BITMAP
00
00
00
00
00
00
00
00
00
00
00
00
00
00
00
00
ENDCHAR
STARTCHAR C090	<DCS>	<vertical>
ENCODING 144
SWIDTH 666 0
DWIDTH 8 0
BBX 8 16 0 -4
BITMAP
18
18
18
18
18
18
18
18
18
18
18
18
18
18
18
18
ENDCHAR
STARTCHAR C091	<PU1>	<right-mid>
ENCODING 145
SWIDTH 666 0
DWIDTH 8 0
BBX 8 16 0 -4
BITMAP
18
18
18
18
18
18
18
F8
18
18
18
18
18
18
18
18
ENDCHAR
STARTCHAR C092	<PU2>	<upper-right>
ENCODING 146
SWIDTH 666 0
DWIDTH 8 0
BBX 8 16 0 -4
BITMAP
00
00
00
00
00
00
00
F8
18
18
18
18
18
18
18
18
ENDCHAR
STARTCHAR C093	<STS>	<lower-left>
ENCODING 147
SWIDTH 666 0
DWIDTH 8 0
BBX 8 16 0 -4
BITMAP
18
18
18
18
18
18
18
1F
00
00
00
00
00
00
00
00
ENDCHAR
STARTCHAR C094	<CCH>	<bottom-mid>
ENCODING 148
SWIDTH 666 0
DWIDTH 8 0
BBX 8 16 0 -4
BITMAP
18
18
18
18
18
18
18
FF
00
00
00
00
00
00
00
00
ENDCHAR
STARTCHAR C095	<MW>	<top-mid>
ENCODING 149
SWIDTH 666 0
DWIDTH 8 0
BBX 8 16 0 -4
BITMAP
00
00
00
00
00
00
00
FF
18
18
18
18
18
18
18
18
ENDCHAR
STARTCHAR C096	<SPA>	<left-mid>
ENCODING 150
SWIDTH 666 0
DWIDTH 8 0
BBX 8 16 0 -4
BITMAP
18
18
18
18
18
18
18
1F
18
18
18
18
18
18
18
18
ENDCHAR
STARTCHAR C097	<EPA>	<horizontal>
ENCODING 151
SWIDTH 666 0
DWIDTH 8 0
BBX 8 16 0 -4
BITMAP
00
00
00
00
00
00
00
FF
00
00
00
00
00
00
00
00
ENDCHAR
STARTCHAR C098	<SOS>	<intersection>
ENCODING 152
SWIDTH 666 0
DWIDTH 8 0
BBX 8 16 0 -4
BITMAP
18
18
18
18
18
18
18
FF
18
18
18
18
18
18
18
18
ENDCHAR
STARTCHAR C099	<SGCI>
ENCODING 153
SWIDTH 666 0
DWIDTH 8 0
BBX 8 16 0 -4
BITMAP
18
18
18
18
18
18
18
F8
00
00
00
00
00
00
00
00
ENDCHAR
STARTCHAR C09A	<SCI>
ENCODING 154
SWIDTH 666 0
DWIDTH 8 0
BBX 8 16 0 -4
BITMAP
00
00
00
00
00
00
00
1F
18
18
18
18
18
18
18
18
ENDCHAR
STARTCHAR C09B	<CSI>
ENCODING 155
SWIDTH 666 0
DWIDTH 8 0
BBX 8 16 0 -4
BITMAP
00
00
00
00
00
00
00
00
00
00
00
00
00
00
00
00
ENDCHAR
STARTCHAR C09C	<ST>
ENCODING 156
SWIDTH 666 0
DWIDTH 8 0
BBX 8 16 0 -4
BITMAP
00
00
00
00
00
00
00
00
00
00
00
00
00
00
00
00
ENDCHAR
STARTCHAR C09D	<OSC>
ENCODING 157
SWIDTH 666 0
DWIDTH 8 0
BBX 8 16 0 -4
BITMAP
00
00
00
00
00
00
00
00
00
00
00
00
00
00
00
00
ENDCHAR
STARTCHAR C09E	<PM>
ENCODING 158
SWIDTH 666 0
DWIDTH 8 0
BBX 8 16 0 -4
BITMAP
00
00
00
00
00
00
00
00
00
00
00
00
00
00
00
00
ENDCHAR
STARTCHAR C09F	<APC>
ENCODING 159
SWIDTH 666 0
DWIDTH 8 0
BBX 8 16 0 -4
BITMAP
00
00
00
00
00
00
00
00
00
00
00
00
00
00
00
00
ENDCHAR
STARTCHAR C0A0	<no-break-space>
ENCODING 160
SWIDTH 666 0
DWIDTH 8 0
BBX 8 16 0 -4
BITMAP
00
00
00
00
00
00
00
00
00
00
00
00
00
00
00
00
ENDCHAR
STARTCHAR C0A1	<inverted-exclamation>
ENCODING 161
SWIDTH 666 0
DWIDTH 8 0
BBX 8 16 0 -4
BITMAP
00
18
18
00
18
18
18
3C
3C
3C
18
00
00
00
00
00
ENDCHAR
STARTCHAR C0A2	<cent-sign>
ENCODING 162
SWIDTH 666 0
DWIDTH 8 0
BBX 8 16 0 -4
BITMAP
00
18
18
3C
66
60
60
60
66
3c
18
18
00
00
00
00
ENDCHAR
STARTCHAR C0A3	<pound-sign>
ENCODING 163
SWIDTH 666 0
DWIDTH 8 0
BBX 8 16 0 -4
BITMAP
00
38
6C
64
60
F0
60
60
60
60
66
fc
00
00
00
00
ENDCHAR
STARTCHAR C0A4	<currency-sign>
ENCODING 164
SWIDTH 666 0
DWIDTH 8 0
BBX 8 16 0 -4
BITMAP
00
00
00
00
66
5A
24
24
5A
66
00
00
00
00
00
00
ENDCHAR
STARTCHAR C0A5	<yen-sign>
ENCODING 165
SWIDTH 666 0
DWIDTH 8 0
BBX 8 16 0 -4
BITMAP
00
00
66
66
3C
18
7E
18
7E
18
18
18
00
00
00
00
ENDCHAR
STARTCHAR C0A6	<broken-bar>
ENCODING 166
SWIDTH 666 0
DWIDTH 8 0
BBX 8 16 0 -4
BITMAP
00
18
18
18
18
18
00
18
18
18
18
18
00
00
00
00
ENDCHAR
STARTCHAR C0A7	<paragraph-sign>
ENCODING 167
SWIDTH 666 0
DWIDTH 8 0
BBX 8 16 0 -4
BITMAP
00
7C
e6
60
38
6C
C6
C6
6C
38
0C
Ce
7C
00
00
00
ENDCHAR
STARTCHAR C0A8	<diaeresis>
ENCODING 168
SWIDTH 666 0
DWIDTH 8 0
BBX 8 16 0 -4
BITMAP
00
00
CC
CC
00
00
00
00
00
00
00
00
00
00
00
00
ENDCHAR
STARTCHAR C0A9	<copyright-sign>
ENCODING 169
SWIDTH 666 0
DWIDTH 8 0
BBX 8 16 0 -4
BITMAP
00
00
38
44
BA
AA
A2
A2
Aa
bA
44
38
00
00
00
00
ENDCHAR
STARTCHAR C0AA	<feminine-ordinal-a>
ENCODING 170
SWIDTH 666 0
DWIDTH 8 0
BBX 8 16 0 -4
BITMAP
00
3C
6C
6C
3E
00
7E
00
00
00
00
00
00
00
00
00
ENDCHAR
STARTCHAR C0AB	<left-angle-quotation>
ENCODING 171
SWIDTH 666 0
DWIDTH 8 0
BBX 8 16 0 -4
BITMAP
00
00
00
00
36
6C
D8
6C
36
00
00
00
00
00
00
00
ENDCHAR
STARTCHAR C0AC	<not-sign>
ENCODING 172
SWIDTH 666 0
DWIDTH 8 0
BBX 8 16 0 -4
BITMAP
00
00
00
00
00
00
FE
06
06
06
00
00
00
00
00
00
ENDCHAR
STARTCHAR C0AD	<soft-hyphen>
ENCODING 173
SWIDTH 666 0
DWIDTH 8 0
BBX 8 16 0 -4
BITMAP
00
00
00
00
00
00
FE
00
00
00
00
00
00
00
00
00
ENDCHAR
STARTCHAR C0AE	<registered-mark>
ENCODING 174
SWIDTH 666 0
DWIDTH 8 0
BBX 8 16 0 -4
BITMAP
00
00
38
44
BA
AA
B2
AA
Aa
82
44
38
00
00
00
00
ENDCHAR
STARTCHAR C0AF	<macron>
ENCODING 175
SWIDTH 666 0
DWIDTH 8 0
BBX 8 16 0 -4
BITMAP
00
00
00
FE
00
00
00
00
00
00
00
00
00
00
00
00
ENDCHAR
STARTCHAR C0B0	<degree-sign>
ENCODING 176
SWIDTH 666 0
DWIDTH 8 0
BBX 8 16 0 -4
BITMAP
00
38
6C
6C
38
00
00
00
00
00
00
00
00
00
00
00
ENDCHAR
STARTCHAR C0B1	<plus-minus-sign>
ENCODING 177
SWIDTH 666 0
DWIDTH 8 0
BBX 8 16 0 -4
BITMAP
00
00
00
18
18
7E
18
18
00
ff
00
00
00
00
00
00
ENDCHAR
STARTCHAR C0B2	<superscript-2>
ENCODING 178
SWIDTH 666 0
DWIDTH 8 0
BBX 8 16 0 -4
BITMAP
00
70
D8
30
60
C8
F8
00
00
00
00
00
00
00
00
00
ENDCHAR
STARTCHAR C0B3	<superscript-3>
ENCODING 179
SWIDTH 666 0
DWIDTH 8 0
BBX 8 16 0 -4
BITMAP
00
70
D8
18
38
18
d8
70
00
00
00
00
00
00
00
00
ENDCHAR
STARTCHAR C0B4	<acute-accent>
ENCODING 180
SWIDTH 666 0
DWIDTH 8 0
BBX 8 16 0 -4
BITMAP
00
18
30
60
00
00
00
00
00
00
00
00
00
00
00
00
ENDCHAR
STARTCHAR C0B5	<micro-sign>
ENCODING 181
SWIDTH 666 0
DWIDTH 8 0
BBX 8 16 0 -4
BITMAP
00
00
00
00
66
66
66
66
7C
60
60
C0
00
00
00
00
ENDCHAR
STARTCHAR C0B6	<pilcrow-sign>
ENCODING 182
SWIDTH 666 0
DWIDTH 8 0
BBX 8 16 0 -4
BITMAP
00
00
7F
DB
DB
DB
7B
1B
1B
1B
1B
00
00
00
00
00
ENDCHAR
STARTCHAR C0B7	<middle-dot>
ENCODING 183
SWIDTH 666 0
DWIDTH 8 0
BBX 8 16 0 -4
BITMAP
00
00
00
00
00
18
18
00
00
00
00
00
00
00
00
00
ENDCHAR
STARTCHAR C0B8	<cedilla>
ENCODING 184
SWIDTH 666 0
DWIDTH 8 0
BBX 8 16 0 -4
BITMAP
00
00
00
00
00
00
00
00
00
00
00
0c
06
7c
00
00
ENDCHAR
STARTCHAR C0B9	<superscript-1>
ENCODING 185
SWIDTH 666 0
DWIDTH 8 0
BBX 8 16 0 -4
BITMAP
00
18
38
18
18
18
00
00
00
00
00
00
00
00
00
00
ENDCHAR
STARTCHAR C0BA	<masculine-ordinal-o>
ENCODING 186
SWIDTH 666 0
DWIDTH 8 0
BBX 8 16 0 -4
BITMAP
00
38
6C
6C
38
00
7C
00
00
00
00
00
00
00
00
00
ENDCHAR
STARTCHAR C0BB	<right-angle-quotation>
ENCODING 187
SWIDTH 666 0
DWIDTH 8 0
BBX 8 16 0 -4
BITMAP
00
00
00
00
D8
6C
36
6C
D8
00
00
00
00
00
00
00
ENDCHAR
STARTCHAR C0BC	<one-quarter>
ENCODING 188
SWIDTH 666 0
DWIDTH 8 0
BBX 8 16 0 -4
BITMAP
00
C0
C0
C6
CC
D8
30
66
CE
9E
3E
06
06
00
00
00
ENDCHAR
STARTCHAR C0BD	<one-half>
ENCODING 189
SWIDTH 666 0
DWIDTH 8 0
BBX 8 16 0 -4
BITMAP
00
C0
C0
C6
CC
D8
30
60
DC
86
0C
18
3E
00
00
00
ENDCHAR
STARTCHAR C0BE	<three-quarters>
ENCODING 190
SWIDTH 666 0
DWIDTH 8 0
BBX 8 16 0 -4
BITMAP
00
E0
20
E2
26
EC
18
30
66
CE
9E
3E
06
06
00
00
ENDCHAR
STARTCHAR C0BF	<inverted-question>
ENCODING 191
SWIDTH 666 0
DWIDTH 8 0
BBX 8 16 0 -4
BITMAP
00
00
30
30
00
30
30
60
c0
C6
c6
7c
00
00
00
00
ENDCHAR
STARTCHAR C0C0	<A-grave>
ENCODING 192
SWIDTH 666 0
DWIDTH 8 0
BBX 8 16 0 -4
BITMAP
60
30
18
00
38
6C
C6
C6
FE
C6
C6
c6
00
00
00
00
ENDCHAR
STARTCHAR C0C1	<A-acute>
ENCODING 193
SWIDTH 666 0
DWIDTH 8 0
BBX 8 16 0 -4
BITMAP
0c
18
30
00
38
6C
C6
C6
FE
C6
C6
c6
00
00
00
00
ENDCHAR
STARTCHAR C0C2	<A-circumflex>
ENCODING 194
SWIDTH 666 0
DWIDTH 8 0
BBX 8 16 0 -4
BITMAP
10
38
6c
00
38
6C
C6
C6
FE
C6
C6
c6
00
00
00
00
ENDCHAR
STARTCHAR C0C3	<A-tilde>
ENCODING 195
SWIDTH 666 0
DWIDTH 8 0
BBX 8 16 0 -4
BITMAP
76
DC
00
00
38
6C
C6
C6
FE
C6
C6
c6
00
00
00
00
ENDCHAR
STARTCHAR C0C4	<A-diaeresis>
ENCODING 196
SWIDTH 666 0
DWIDTH 8 0
BBX 8 16 0 -4
BITMAP
00
C6
C6
10
38
6C
C6
C6
FE
C6
C6
c6
00
00
00
00
ENDCHAR
STARTCHAR C0C5	<A-ring>
ENCODING 197
SWIDTH 666 0
DWIDTH 8 0
BBX 8 16 0 -4
BITMAP
38
6C
38
00
38
6C
C6
C6
FE
C6
C6
c6
00
00
00
00
ENDCHAR
STARTCHAR C0C6	<AE>
ENCODING 198
SWIDTH 666 0
DWIDTH 8 0
BBX 8 16 0 -4
BITMAP
00
00
3E
6C
CC
CC
FE
CC
CC
CC
Cc
ce
00
00
00
00
ENDCHAR
STARTCHAR C0C7	<C-cedilla>
ENCODING 199
SWIDTH 666 0
DWIDTH 8 0
BBX 8 16 0 -4
BITMAP
00
00
3C
66
C2
C0
C0
C0
c0
c2
66
3c
0c
06
7c
00
ENDCHAR
STARTCHAR C0C8	<E-grave>
ENCODING 200
SWIDTH 666 0
DWIDTH 8 0
BBX 8 16 0 -4
BITMAP
60
30
18
00
FE
66
60
7C
60
60
66
fe
00
00
00
00
ENDCHAR
STARTCHAR C0C9	<E-acute>
ENCODING 201
SWIDTH 666 0
DWIDTH 8 0
BBX 8 16 0 -4
BITMAP
0c
18
30
00
FE
66
60
7C
60
60
66
fe
00
00
00
00
ENDCHAR
STARTCHAR C0CA	<E-circumflex>
ENCODING 202
SWIDTH 666 0
DWIDTH 8 0
BBX 8 16 0 -4
BITMAP
10
38
6c
00
FE
66
60
7C
60
60
66
fe
00
00
00
00
ENDCHAR
STARTCHAR C0CB	<E-diaeresis>
ENCODING 203
SWIDTH 666 0
DWIDTH 8 0
BBX 8 16 0 -4
BITMAP
00
C6
C6
00
FE
66
60
7C
60
60
66
fe
00
00
00
00
ENDCHAR
STARTCHAR C0CC	<I-grave>
ENCODING 204
SWIDTH 666 0
DWIDTH 8 0
BBX 8 16 0 -4
BITMAP
60
30
18
00
3C
18
18
18
18
18
18
3c
00
00
00
00
ENDCHAR
STARTCHAR C0CD	<I-acute>
ENCODING 205
SWIDTH 666 0
DWIDTH 8 0
BBX 8 16 0 -4
BITMAP
0c
18
30
00
3C
18
18
18
18
18
18
3c
00
00
00
00
ENDCHAR
STARTCHAR C0CE	<I-circumflex>
ENCODING 206
SWIDTH 666 0
DWIDTH 8 0
BBX 8 16 0 -4
BITMAP
18
3C
66
00
3C
18
18
18
18
18
18
3c
00
00
00
00
ENDCHAR
STARTCHAR C0CF	<I-diaeresis>
ENCODING 207
SWIDTH 666 0
DWIDTH 8 0
BBX 8 16 0 -4
BITMAP
66
66
00
3C
18
18
18
18
18
18
18
3c
00
00
00
00
ENDCHAR
STARTCHAR C0D0	<Eth>
ENCODING 208
SWIDTH 666 0
DWIDTH 8 0
BBX 8 16 0 -4
BITMAP
00
00
F8
6C
66
66
F6
66
66
66
6c
f8
00
00
00
00
ENDCHAR
STARTCHAR C0D1	<N-tilde>
ENCODING 209
SWIDTH 666 0
DWIDTH 8 0
BBX 8 16 0 -4
BITMAP
76
DC
00
C6
E6
F6
FE
DE
CE
C6
C6
c6
00
00
00
00
ENDCHAR
STARTCHAR C0D2	<O-grave>
ENCODING 210
SWIDTH 666 0
DWIDTH 8 0
BBX 8 16 0 -4
BITMAP
60
30
18
7c
c6
C6
C6
C6
C6
c6
c6
7c
00
00
00
00
ENDCHAR
STARTCHAR C0D3	<O-acute>
ENCODING 211
SWIDTH 666 0
DWIDTH 8 0
BBX 8 16 0 -4
BITMAP
0c
18
30
7c
c6
c6
c6
c6
c6
c6
c6
7c
00
00
00
00
ENDCHAR
STARTCHAR C0D4	<O-circumflex>
ENCODING 212
SWIDTH 666 0
DWIDTH 8 0
BBX 8 16 0 -4
BITMAP
10
38
6c
00
7c
C6
C6
C6
C6
c6
c6
7c
00
00
00
00
ENDCHAR
STARTCHAR C0D5	<O-tilde>
ENCODING 213
SWIDTH 666 0
DWIDTH 8 0
BBX 8 16 0 -4
BITMAP
76
DC
00
7c
c6
C6
C6
C6
C6
c6
c6
7c
00
00
00
00
ENDCHAR
STARTCHAR C0D6	<O-diaeresis>
ENCODING 214
SWIDTH 666 0
DWIDTH 8 0
BBX 8 16 0 -4
BITMAP
00
C6
C6
00
7c
C6
C6
C6
C6
c6
c6
7c
00
00
00
00
ENDCHAR
STARTCHAR C0D7	<multiplication-sign>
ENCODING 215
SWIDTH 666 0
DWIDTH 8 0
BBX 8 16 0 -4
BITMAP
00
00
00
00
00
c6
6c
38
38
6c
c6
00
00
00
00
00
ENDCHAR
STARTCHAR C0D8	<O-slash>
ENCODING 216
SWIDTH 666 0
DWIDTH 8 0
BBX 8 16 0 -4
BITMAP
00
00
7c
c6
C6
ce
de
f6
e6
c6
c6
7c
00
00
00
00
ENDCHAR
STARTCHAR C0D9	<U-grave>
ENCODING 217
SWIDTH 666 0
DWIDTH 8 0
BBX 8 16 0 -4
BITMAP
60
30
18
00
C6
C6
C6
C6
C6
c6
c6
7c
00
00
00
00
ENDCHAR
STARTCHAR C0DA	<U-acute>
ENCODING 218
SWIDTH 666 0
DWIDTH 8 0
BBX 8 16 0 -4
BITMAP
0c
18
30
00
C6
C6
C6
C6
C6
C6
fe
7c
00
00
00
00
ENDCHAR
STARTCHAR C0DB	<U-circumflex>
ENCODING 219
SWIDTH 666 0
DWIDTH 8 0
BBX 8 16 0 -4
BITMAP
10
38
6c
00
C6
C6
C6
C6
C6
C6
c6
7c
00
00
00
00
ENDCHAR
STARTCHAR C0DC	<U-diaeresis>
ENCODING 220
SWIDTH 666 0
DWIDTH 8 0
BBX 8 16 0 -4
BITMAP
00
C6
C6
00
C6
C6
C6
C6
C6
C6
c6
7c
00
00
00
00
ENDCHAR
STARTCHAR C0DD	<Y-acute>
ENCODING 221
SWIDTH 666 0
DWIDTH 8 0
BBX 8 16 0 -4
BITMAP
0c
18
30
66
66
66
66
3C
18
18
18
3c
00
00
00
00
ENDCHAR
STARTCHAR C0DE	<Thorn>
ENCODING 222
SWIDTH 666 0
DWIDTH 8 0
BBX 8 16 0 -4
BITMAP
00
00
F0
60
7C
66
66
66
7C
60
60
F0
00
00
00
00
ENDCHAR
STARTCHAR C0DF	<sharp-s>
ENCODING 223
SWIDTH 666 0
DWIDTH 8 0
BBX 8 16 0 -4
BITMAP
00
00
00
00
7C
C6
c6
fc
C6
c6
c6
fc
c0
40
40
00
ENDCHAR
STARTCHAR C0E0	<a-grave>
ENCODING 224
SWIDTH 666 0
DWIDTH 8 0
BBX 8 16 0 -4
BITMAP
00
60
30
18
00
78
0C
7C
CC
CC
cc
76
00
00
00
00
ENDCHAR
STARTCHAR C0E1	<a-acute>
ENCODING 225
SWIDTH 666 0
DWIDTH 8 0
BBX 8 16 0 -4
BITMAP
00
18
30
60
00
78
0C
7C
CC
CC
cc
76
00
00
00
00
ENDCHAR
STARTCHAR C0E2	<a-circumflex>
ENCODING 226
SWIDTH 666 0
DWIDTH 8 0
BBX 8 16 0 -4
BITMAP
00
10
38
6C
00
78
0C
7C
CC
CC
cc
76
00
00
00
00
ENDCHAR
STARTCHAR C0E3	<a-tilde>
ENCODING 227
SWIDTH 666 0
DWIDTH 8 0
BBX 8 16 0 -4
BITMAP
00
00
76
DC
00
78
0C
7C
CC
CC
cc
76
00
00
00
00
ENDCHAR
STARTCHAR C0E4	<a-diaeresis>
ENCODING 228
SWIDTH 666 0
DWIDTH 8 0
BBX 8 16 0 -4
BITMAP
00
00
CC
CC
00
78
0C
7C
CC
CC
cc
76
00
00
00
00
ENDCHAR
STARTCHAR C0E5	<a-ring>
ENCODING 229
SWIDTH 666 0
DWIDTH 8 0
BBX 8 16 0 -4
BITMAP
00
38
6C
38
00
78
0C
7C
CC
CC
cc
76
00
00
00
00
ENDCHAR
STARTCHAR C0E6	<ae>
ENCODING 230
SWIDTH 666 0
DWIDTH 8 0
BBX 8 16 0 -4
BITMAP
00
00
00
00
CC
76
36
7E
D8
D8
6E
00
00
00
00
00
ENDCHAR
STARTCHAR C0E7	<c-cedilla>
ENCODING 231
SWIDTH 666 0
DWIDTH 8 0
BBX 8 16 0 -4
BITMAP
00
00
00
00
00
3c
66
60
60
60
66
3C
1c
06
3c
00
ENDCHAR
STARTCHAR C0E8	<e-grave>
ENCODING 232
SWIDTH 666 0
DWIDTH 8 0
BBX 8 16 0 -4
BITMAP
00
60
30
18
00
7C
C6
FE
C0
C6
c6
7c
00
00
00
00
ENDCHAR
STARTCHAR C0E9	<e-acute>
ENCODING 233
SWIDTH 666 0
DWIDTH 8 0
BBX 8 16 0 -4
BITMAP
00
0C
18
30
00
7C
C6
FE
C0
C6
c6
7c
00
00
00
00
ENDCHAR
STARTCHAR C0EA	<e-circumflex>
ENCODING 234
SWIDTH 666 0
DWIDTH 8 0
BBX 8 16 0 -4
BITMAP
00
10
38
6C
00
7C
C6
FE
C0
C6
c6
7c
00
00
00
00
ENDCHAR
STARTCHAR C0EB	<e-diaeresis>
ENCODING 235
SWIDTH 666 0
DWIDTH 8 0
BBX 8 16 0 -4
BITMAP
00
00
6C
6C
00
7C
C6
FE
C0
C6
c6
7c
00
00
00
00
ENDCHAR
STARTCHAR C0EC	<i-grave>
ENCODING 236
SWIDTH 666 0
DWIDTH 8 0
BBX 8 16 0 -4
BITMAP
00
60
30
18
00
38
18
18
18
18
18
3c
00
00
00
00
ENDCHAR
STARTCHAR C0ED	<i-acute>
ENCODING 237
SWIDTH 666 0
DWIDTH 8 0
BBX 8 16 0 -4
BITMAP
00
0c
18
30
00
38
18
18
18
18
18
3c
00
00
00
00
ENDCHAR
STARTCHAR C0EE	<i-circumflex>
ENCODING 238
SWIDTH 666 0
DWIDTH 8 0
BBX 8 16 0 -4
BITMAP
00
10
38
6c
00
38
18
18
18
18
18
3c
00
00
00
00
ENDCHAR
STARTCHAR C0EF	<i-diaeresis>
ENCODING 239
SWIDTH 666 0
DWIDTH 8 0
BBX 8 16 0 -4
BITMAP
00
00
66
66
00
38
18
18
18
18
18
3c
00
00
00
00
ENDCHAR
STARTCHAR C0F0	<eth>
ENCODING 240
SWIDTH 666 0
DWIDTH 8 0
BBX 8 16 0 -4
BITMAP
00
1c
0c
3e
0c
0c
7c
cc
cc
cc
cc
76
00
00
00
00
ENDCHAR
STARTCHAR C0F1	<n-tilde>
ENCODING 241
SWIDTH 666 0
DWIDTH 8 0
BBX 8 16 0 -4
BITMAP
00
00
76
DC
00
DC
66
66
66
66
66
66
00
00
00
00
ENDCHAR
STARTCHAR C0F2	<o-grave>
ENCODING 242
SWIDTH 666 0
DWIDTH 8 0
BBX 8 16 0 -4
BITMAP
00
60
30
18
00
7C
C6
C6
C6
C6
c6
7c
00
00
00
00
ENDCHAR
STARTCHAR C0F3	<o-acute>
ENCODING 243
SWIDTH 666 0
DWIDTH 8 0
BBX 8 16 0 -4
BITMAP
00
0c
18
30
00
7C
C6
C6
C6
C6
c6
7c
00
00
00
00
ENDCHAR
STARTCHAR C0F4	<o-circumflex>
ENCODING 244
SWIDTH 666 0
DWIDTH 8 0
BBX 8 16 0 -4
BITMAP
00
10
38
6c
00
7C
C6
C6
C6
C6
c6
7c
00
00
00
00
ENDCHAR
STARTCHAR C0F5	<o-tilde>
ENCODING 245
SWIDTH 666 0
DWIDTH 8 0
BBX 8 16 0 -4
BITMAP
00
00
76
DC
00
7C
C6
C6
C6
C6
c6
7c
00
00
00
00
ENDCHAR
STARTCHAR C0F6	<o-diaeresis>
ENCODING 246
SWIDTH 666 0
DWIDTH 8 0
BBX 8 16 0 -4
BITMAP
00
00
C6
C6
00
7C
C6
C6
C6
C6
c6
7c
00
00
00
00
ENDCHAR
STARTCHAR C0F7	<division-sign>
ENCODING 247
SWIDTH 666 0
DWIDTH 8 0
BBX 8 16 0 -4
BITMAP
00
00
00
18
18
00
7E
00
18
18
00
00
00
00
00
00
ENDCHAR
STARTCHAR C0F8	<o-slash>
ENCODING 248
SWIDTH 666 0
DWIDTH 8 0
BBX 8 16 0 -4
BITMAP
00
00
00
00
00
7c
c6
ce
d6
e6
c6
7c
00
00
00
00
ENDCHAR
STARTCHAR C0F9	<u-grave>
ENCODING 249
SWIDTH 666 0
DWIDTH 8 0
BBX 8 16 0 -4
BITMAP
00
60
30
18
00
CC
CC
CC
CC
CC
cc
76
00
00
00
00
ENDCHAR
STARTCHAR C0FA	<u-acute>
ENCODING 250
SWIDTH 666 0
DWIDTH 8 0
BBX 8 16 0 -4
BITMAP
00
18
30
60
00
CC
CC
CC
CC
CC
cc
76
00
00
00
00
ENDCHAR
STARTCHAR C0FB	<u-circumflex>
ENCODING 251
SWIDTH 666 0
DWIDTH 8 0
BBX 8 16 0 -4
BITMAP
00
10
38
6c
00
CC
CC
CC
CC
CC
cc
76
00
00
00
00
ENDCHAR
STARTCHAR C0FC	<u-diaeresis>
ENCODING 252
SWIDTH 666 0
DWIDTH 8 0
BBX 8 16 0 -4
BITMAP
00
00
CC
CC
00
CC
CC
CC
CC
CC
cc
76
00
00
00
00
ENDCHAR
STARTCHAR C0FD	<y-acute>
ENCODING 253
SWIDTH 666 0
DWIDTH 8 0
BBX 8 16 0 -4
BITMAP
00
0c
18
30
00
C6
C6
C6
C6
c6
c6
7C
0c
18
70
00
ENDCHAR
STARTCHAR C0FE	<thorn>
ENCODING 254
SWIDTH 666 0
DWIDTH 8 0
BBX 8 16 0 -4
BITMAP
00
00
F0
60
60
7C
66
66
66
7C
60
60
60
f0
00
00
ENDCHAR
STARTCHAR C0FF	<y-diaeresis>
ENCODING 255
SWIDTH 666 0
DWIDTH 8 0
BBX 8 16 0 -4
BITMAP
00
00
C6
C6
00
C6
C6
C6
C6
c6
c6
7c
0c
18
70
00
ENDCHAR
ENDFONT
